<?xml version="1.0" standalone="no"?>
<!DOCTYPE svg PUBLIC "-//W3C//DTD SVG 20010904//EN"
 "http://www.w3.org/TR/2001/REC-SVG-20010904/DTD/svg10.dtd">
<svg version="1.0" xmlns="http://www.w3.org/2000/svg"
 width="50.000000pt" height="50.000000pt" viewBox="0 0 50.000000 50.000000"
 preserveAspectRatio="xMidYMid meet">

<g transform="translate(0.000000,50.000000) scale(0.100000,-0.100000)"
fill="#000000" stroke="none">
<path d="M165 451 c-44 -19 -70 -52 -81 -97 -3 -16 -18 -53 -33 -82 l-26 -54
28 -20 c20 -15 27 -28 27 -54 0 -41 29 -74 65 -74 18 0 25 -5 25 -20 0 -19 7
-20 99 -20 l99 0 4 57 c3 42 14 73 36 111 25 41 30 57 22 71 -11 21 -4 31 22
31 13 0 18 8 18 30 0 22 -5 30 -18 30 -27 0 -33 10 -21 32 15 29 -10 54 -39
39 -22 -12 -32 -6 -32 21 0 16 -9 18 -77 18 -54 0 -91 -6 -118 -19z m175 -16
c0 -21 38 -39 54 -26 17 14 29 2 15 -15 -13 -16 5 -54 26 -54 8 0 15 -4 15
-10 0 -5 -7 -10 -15 -10 -21 0 -39 -38 -26 -54 14 -17 2 -29 -15 -15 -16 13
-54 -5 -54 -26 0 -8 -4 -15 -10 -15 -5 0 -10 7 -10 15 0 21 -38 39 -54 26 -17
-14 -29 -2 -15 15 13 16 -5 54 -26 54 -8 0 -15 5 -15 10 0 6 7 10 15 10 21 0
39 38 26 54 -14 17 -2 29 15 15 16 -13 54 5 54 26 0 8 5 15 10 15 6 0 10 -7
10 -15z"/>
<path d="M296 364 c-31 -30 -9 -84 34 -84 24 0 50 26 50 50 0 24 -26 50 -50
50 -10 0 -26 -7 -34 -16z m59 -34 c0 -18 -6 -26 -23 -28 -13 -2 -25 3 -28 12
-10 26 4 48 28 44 17 -2 23 -10 23 -28z"/>
</g>
</svg>
