<?xml version="1.0" standalone="no"?>
<!DOCTYPE svg PUBLIC "-//W3C//DTD SVG 20010904//EN"
 "http://www.w3.org/TR/2001/REC-SVG-20010904/DTD/svg10.dtd">
<svg version="1.0" xmlns="http://www.w3.org/2000/svg"
 width="408.000000pt" height="287.000000pt" viewBox="0 0 408.000000 287.000000"
 preserveAspectRatio="xMidYMid meet">

<g transform="translate(0.000000,287.000000) scale(0.100000,-0.100000)"
fill="#000000" stroke="none">
<path d="M229 2514 c-14 -17 -21 -1 111 -249 26 -49 61 -115 76 -145 16 -30
31 -57 34 -60 3 -3 18 -30 33 -60 44 -85 147 -279 177 -335 15 -27 44 -79 64
-115 19 -36 54 -102 78 -147 23 -46 46 -83 50 -83 5 0 13 12 19 28 28 75 183
359 209 382 3 3 22 30 43 60 20 30 48 68 62 84 47 55 48 51 -81 296 -11 19
-21 37 -24 40 -15 14 -29 64 -24 84 5 21 63 56 91 56 6 0 24 7 39 15 16 8 39
15 51 15 12 0 24 4 27 9 4 5 24 12 46 16 22 4 42 11 46 16 3 5 14 9 24 9 32 0
100 31 110 50 6 10 7 26 4 34 -6 14 -72 16 -629 16 -556 0 -624 -2 -636 -16z"/>
<path d="M2370 2491 c-8 -5 -34 -12 -57 -16 -24 -4 -45 -11 -49 -16 -3 -5 -13
-9 -22 -9 -23 0 -160 -57 -259 -107 -180 -91 -335 -205 -494 -363 -158 -157
-286 -323 -370 -480 -13 -25 -26 -47 -29 -50 -7 -7 -56 -107 -80 -165 -11 -27
-25 -58 -30 -67 -6 -10 -10 -23 -10 -29 0 -6 -6 -25 -14 -42 -7 -18 -21 -59
-31 -92 -10 -33 -22 -71 -26 -85 -5 -14 -11 -43 -14 -65 -4 -22 -11 -53 -15
-70 -16 -54 -30 -276 -19 -296 9 -18 29 -19 393 -19 299 0 386 3 394 13 7 8
12 113 15 282 4 261 12 335 47 475 13 55 56 183 76 230 9 19 19 44 24 55 39
92 147 300 171 329 5 6 46 63 91 126 77 108 277 323 355 381 34 25 42 56 21
77 -14 14 -46 15 -68 3z"/>
<path d="M2995 2381 c-84 -38 -129 -105 -123 -183 4 -70 -42 -137 -121 -174
-53 -26 -152 -30 -206 -9 -65 24 -173 23 -229 -4 -65 -32 -98 -85 -98 -159 0
-74 22 -122 82 -182 47 -46 68 -58 205 -110 143 -53 214 -150 223 -301 8 -132
-42 -227 -144 -278 -60 -31 -146 -32 -221 -3 -119 46 -255 -3 -299 -107 -38
-91 7 -204 121 -299 41 -35 126 -62 193 -62 148 1 233 89 219 227 -6 57 -6 57
37 99 24 23 65 48 92 58 60 20 158 21 214 1 59 -21 155 -19 206 4 60 27 93 75
100 147 6 52 3 67 -19 109 -31 60 -62 97 -110 130 -57 38 -73 45 -129 55 -87
17 -180 91 -225 180 -40 79 -45 193 -11 272 13 31 36 70 51 87 63 71 176 98
259 62 186 -80 365 10 355 179 -4 68 -25 113 -79 168 -92 96 -246 137 -343 93z"/>
<path d="M3453 2140 c20 -75 -38 -196 -113 -235 -37 -19 -85 -29 -145 -28
l-50 0 45 -19 c64 -28 164 -27 221 3 51 26 63 38 91 98 24 52 19 120 -13 182
-27 54 -50 53 -36 -1z"/>
<path d="M2898 1902 c-55 -27 -78 -51 -105 -112 -45 -102 -39 -182 23 -288 28
-47 44 -50 25 -5 -14 34 -17 134 -6 188 19 91 115 179 211 194 l49 8 -30 13
c-49 21 -125 22 -167 2z"/>
<path d="M3288 1072 c3 -50 0 -76 -11 -98 -60 -114 -193 -161 -336 -118 -87
25 -197 18 -246 -18 -50 -36 -58 -55 -60 -137 -1 -80 -12 -106 -64 -163 -31
-35 -117 -68 -179 -69 l-47 0 41 -19 c79 -35 213 -12 266 47 33 36 49 93 46
159 -2 58 0 66 27 95 17 17 56 44 87 59 51 24 67 27 136 24 43 -2 95 -10 115
-19 69 -29 184 -10 233 39 26 27 57 110 56 150 -2 36 -47 136 -62 136 -4 0 -5
-31 -2 -68z"/>
</g>
</svg>
