<?xml version="1.0" standalone="no"?>
<!DOCTYPE svg PUBLIC "-//W3C//DTD SVG 20010904//EN"
 "http://www.w3.org/TR/2001/REC-SVG-20010904/DTD/svg10.dtd">
<svg version="1.0" xmlns="http://www.w3.org/2000/svg"
 width="50.000000pt" height="50.000000pt" viewBox="0 0 50.000000 50.000000"
 preserveAspectRatio="xMidYMid meet">

<g transform="translate(0.000000,50.000000) scale(0.100000,-0.100000)"
fill="#000000" stroke="none">
<path d="M20 460 c-18 -18 -20 -33 -20 -185 0 -152 2 -167 20 -185 19 -19 33
-20 250 -20 l230 0 0 180 0 180 -186 0 c-186 0 -187 0 -210 25 -28 30 -57 32
-84 5z m68 -12 c8 -8 12 -53 12 -138 l0 -125 -40 0 -40 0 0 125 c0 128 6 150
40 150 9 0 21 -5 28 -12z m332 -127 c0 -23 -4 -28 -18 -25 -10 3 -29 -7 -47
-25 l-29 -31 -28 26 -27 27 -35 -27 c-19 -14 -37 -26 -40 -26 -15 0 -2 18 35
49 l40 33 28 -26 27 -26 23 24 c14 15 21 32 18 40 -5 12 1 16 23 16 26 0 30
-4 30 -29z m0 -151 c0 -6 -48 -10 -125 -10 -77 0 -125 4 -125 10 0 6 48 10
125 10 77 0 125 -4 125 -10z"/>
</g>
</svg>
